<mxfile host="app.diagrams.net" agent="Mozilla/5.0 (Windows NT 10.0; Win64; x64) AppleWebKit/537.36 (KHTML, like Gecko) Chrome/132.0.0.0 Safari/537.36 Edg/132.0.0.0" version="26.0.11">
  <diagram name="Page-1" id="9QmxGrDnfrXztBY2H8Ht">
    <mxGraphModel grid="1" page="1" gridSize="10" guides="1" tooltips="1" connect="1" arrows="1" fold="1" pageScale="1" pageWidth="850" pageHeight="1100" math="0" shadow="0">
      <root>
        <mxCell id="0" />
        <mxCell id="1" parent="0" />
        <mxCell id="LOl-UYX_HxrQlP2uvrO0-2" value="Customer Database" style="shape=partialRectangle;whiteSpace=wrap;html=1;bottom=1;right=1;left=1;top=0;fillColor=none;routingCenterX=-0.5;direction=south;" vertex="1" parent="1">
          <mxGeometry x="365" y="175" width="140" height="60" as="geometry" />
        </mxCell>
        <mxCell id="LOl-UYX_HxrQlP2uvrO0-3" value="Manage Customer Information" style="rounded=1;whiteSpace=wrap;html=1;" vertex="1" parent="1">
          <mxGeometry x="80" y="165" width="140" height="90" as="geometry" />
        </mxCell>
        <mxCell id="LOl-UYX_HxrQlP2uvrO0-4" value="" style="endArrow=none;html=1;rounded=0;entryX=1;entryY=0.25;entryDx=0;entryDy=0;exitX=0;exitY=0.25;exitDx=0;exitDy=0;" edge="1" parent="1" source="LOl-UYX_HxrQlP2uvrO0-3" target="LOl-UYX_HxrQlP2uvrO0-3">
          <mxGeometry width="50" height="50" relative="1" as="geometry">
            <mxPoint x="400" y="290" as="sourcePoint" />
            <mxPoint x="450" y="240" as="targetPoint" />
          </mxGeometry>
        </mxCell>
        <mxCell id="LOl-UYX_HxrQlP2uvrO0-5" value="1.1" style="text;html=1;align=center;verticalAlign=middle;whiteSpace=wrap;rounded=0;" vertex="1" parent="1">
          <mxGeometry x="120" y="165" width="60" height="30" as="geometry" />
        </mxCell>
        <mxCell id="LOl-UYX_HxrQlP2uvrO0-6" value="Manage Transaction Information" style="rounded=1;whiteSpace=wrap;html=1;" vertex="1" parent="1">
          <mxGeometry x="640" y="160" width="130" height="90" as="geometry" />
        </mxCell>
        <mxCell id="LOl-UYX_HxrQlP2uvrO0-7" value="" style="endArrow=none;html=1;rounded=0;entryX=1;entryY=0.25;entryDx=0;entryDy=0;exitX=0;exitY=0.25;exitDx=0;exitDy=0;" edge="1" parent="1" source="LOl-UYX_HxrQlP2uvrO0-6" target="LOl-UYX_HxrQlP2uvrO0-6">
          <mxGeometry width="50" height="50" relative="1" as="geometry">
            <mxPoint x="400" y="290" as="sourcePoint" />
            <mxPoint x="450" y="240" as="targetPoint" />
          </mxGeometry>
        </mxCell>
        <mxCell id="LOl-UYX_HxrQlP2uvrO0-8" value="1.2" style="text;html=1;align=center;verticalAlign=middle;whiteSpace=wrap;rounded=0;" vertex="1" parent="1">
          <mxGeometry x="675" y="160" width="60" height="30" as="geometry" />
        </mxCell>
        <mxCell id="LOl-UYX_HxrQlP2uvrO0-9" value="" style="endArrow=classic;html=1;rounded=0;entryX=0.127;entryY=1.014;entryDx=0;entryDy=0;exitX=1.026;exitY=0.1;exitDx=0;exitDy=0;exitPerimeter=0;entryPerimeter=0;" edge="1" parent="1" source="LOl-UYX_HxrQlP2uvrO0-3" target="LOl-UYX_HxrQlP2uvrO0-2">
          <mxGeometry relative="1" as="geometry">
            <mxPoint x="190" y="110" as="sourcePoint" />
            <mxPoint x="290" y="110" as="targetPoint" />
          </mxGeometry>
        </mxCell>
        <mxCell id="LOl-UYX_HxrQlP2uvrO0-10" value="Customer Info" style="edgeLabel;resizable=0;html=1;;align=center;verticalAlign=middle;" connectable="0" vertex="1" parent="LOl-UYX_HxrQlP2uvrO0-9">
          <mxGeometry relative="1" as="geometry" />
        </mxCell>
        <mxCell id="LOl-UYX_HxrQlP2uvrO0-11" value="Customers" style="rounded=1;whiteSpace=wrap;html=1;" vertex="1" parent="1">
          <mxGeometry x="365" y="300" width="120" height="60" as="geometry" />
        </mxCell>
        <mxCell id="LOl-UYX_HxrQlP2uvrO0-12" value="" style="endArrow=classic;html=1;rounded=0;entryX=1.02;entryY=0.909;entryDx=0;entryDy=0;entryPerimeter=0;exitX=0;exitY=0;exitDx=0;exitDy=0;" edge="1" parent="1" source="LOl-UYX_HxrQlP2uvrO0-11" target="LOl-UYX_HxrQlP2uvrO0-3">
          <mxGeometry relative="1" as="geometry">
            <mxPoint x="220" y="310" as="sourcePoint" />
            <mxPoint x="320" y="310" as="targetPoint" />
          </mxGeometry>
        </mxCell>
        <mxCell id="LOl-UYX_HxrQlP2uvrO0-13" value="Customer Info" style="edgeLabel;resizable=0;html=1;;align=center;verticalAlign=middle;" connectable="0" vertex="1" parent="LOl-UYX_HxrQlP2uvrO0-12">
          <mxGeometry relative="1" as="geometry" />
        </mxCell>
        <mxCell id="LOl-UYX_HxrQlP2uvrO0-14" value="" style="endArrow=classic;html=1;rounded=0;exitX=0.875;exitY=0;exitDx=0;exitDy=0;exitPerimeter=0;" edge="1" parent="1">
          <mxGeometry relative="1" as="geometry">
            <mxPoint x="485" y="295" as="sourcePoint" />
            <mxPoint x="640" y="195" as="targetPoint" />
          </mxGeometry>
        </mxCell>
        <mxCell id="LOl-UYX_HxrQlP2uvrO0-15" value="Transaction Details" style="edgeLabel;resizable=0;html=1;;align=center;verticalAlign=middle;" connectable="0" vertex="1" parent="LOl-UYX_HxrQlP2uvrO0-14">
          <mxGeometry relative="1" as="geometry" />
        </mxCell>
        <mxCell id="LOl-UYX_HxrQlP2uvrO0-18" value="" style="endArrow=classic;html=1;rounded=0;exitX=0;exitY=1;exitDx=0;exitDy=0;entryX=1.006;entryY=0.883;entryDx=0;entryDy=0;entryPerimeter=0;" edge="1" parent="1" source="LOl-UYX_HxrQlP2uvrO0-6" target="LOl-UYX_HxrQlP2uvrO0-11">
          <mxGeometry relative="1" as="geometry">
            <mxPoint x="460" y="350" as="sourcePoint" />
            <mxPoint x="560" y="350" as="targetPoint" />
          </mxGeometry>
        </mxCell>
        <mxCell id="LOl-UYX_HxrQlP2uvrO0-19" value="Confirmation" style="edgeLabel;resizable=0;html=1;;align=center;verticalAlign=middle;" connectable="0" vertex="1" parent="LOl-UYX_HxrQlP2uvrO0-18">
          <mxGeometry relative="1" as="geometry" />
        </mxCell>
        <mxCell id="LOl-UYX_HxrQlP2uvrO0-20" value="Release Cash and Receipts" style="rounded=1;whiteSpace=wrap;html=1;" vertex="1" parent="1">
          <mxGeometry x="120" y="390" width="130" height="80" as="geometry" />
        </mxCell>
        <mxCell id="LOl-UYX_HxrQlP2uvrO0-21" value="" style="endArrow=none;html=1;rounded=0;exitX=0;exitY=0.25;exitDx=0;exitDy=0;entryX=1;entryY=0.25;entryDx=0;entryDy=0;" edge="1" parent="1" source="LOl-UYX_HxrQlP2uvrO0-20" target="LOl-UYX_HxrQlP2uvrO0-20">
          <mxGeometry width="50" height="50" relative="1" as="geometry">
            <mxPoint x="120" y="450" as="sourcePoint" />
            <mxPoint x="210" y="416" as="targetPoint" />
          </mxGeometry>
        </mxCell>
        <mxCell id="LOl-UYX_HxrQlP2uvrO0-22" value="1.3" style="text;html=1;align=center;verticalAlign=middle;whiteSpace=wrap;rounded=0;" vertex="1" parent="1">
          <mxGeometry x="150" y="390" width="60" height="30" as="geometry" />
        </mxCell>
        <mxCell id="LOl-UYX_HxrQlP2uvrO0-25" value="Transaction Database" style="shape=partialRectangle;whiteSpace=wrap;html=1;bottom=1;right=1;left=1;top=0;fillColor=none;routingCenterX=-0.5;direction=south;" vertex="1" parent="1">
          <mxGeometry x="640" y="410" width="110" height="60" as="geometry" />
        </mxCell>
        <mxCell id="LOl-UYX_HxrQlP2uvrO0-26" value="" style="endArrow=classic;html=1;rounded=0;entryX=0.003;entryY=0.914;entryDx=0;entryDy=0;entryPerimeter=0;" edge="1" parent="1" target="LOl-UYX_HxrQlP2uvrO0-11">
          <mxGeometry relative="1" as="geometry">
            <mxPoint x="250" y="409.58" as="sourcePoint" />
            <mxPoint x="350" y="409.58" as="targetPoint" />
          </mxGeometry>
        </mxCell>
        <mxCell id="LOl-UYX_HxrQlP2uvrO0-27" value="Cash and Receipts" style="edgeLabel;resizable=0;html=1;;align=center;verticalAlign=middle;" connectable="0" vertex="1" parent="LOl-UYX_HxrQlP2uvrO0-26">
          <mxGeometry relative="1" as="geometry" />
        </mxCell>
        <mxCell id="LOl-UYX_HxrQlP2uvrO0-30" value="" style="endArrow=classic;html=1;rounded=0;entryX=0.25;entryY=1;entryDx=0;entryDy=0;exitX=0;exitY=0.75;exitDx=0;exitDy=0;" edge="1" parent="1">
          <mxGeometry relative="1" as="geometry">
            <mxPoint x="640" y="410" as="sourcePoint" />
            <mxPoint x="660" y="250" as="targetPoint" />
          </mxGeometry>
        </mxCell>
        <mxCell id="LOl-UYX_HxrQlP2uvrO0-31" value="Update" style="edgeLabel;resizable=0;html=1;;align=center;verticalAlign=middle;" connectable="0" vertex="1" parent="LOl-UYX_HxrQlP2uvrO0-30">
          <mxGeometry relative="1" as="geometry" />
        </mxCell>
        <mxCell id="LOl-UYX_HxrQlP2uvrO0-32" value="" style="endArrow=classic;html=1;rounded=0;exitX=0.75;exitY=1;exitDx=0;exitDy=0;entryX=-0.071;entryY=0.1;entryDx=0;entryDy=0;entryPerimeter=0;" edge="1" parent="1" source="LOl-UYX_HxrQlP2uvrO0-6" target="LOl-UYX_HxrQlP2uvrO0-25">
          <mxGeometry relative="1" as="geometry">
            <mxPoint x="720" y="310" as="sourcePoint" />
            <mxPoint x="820" y="310" as="targetPoint" />
          </mxGeometry>
        </mxCell>
        <mxCell id="LOl-UYX_HxrQlP2uvrO0-33" value="Transaction Details" style="edgeLabel;resizable=0;html=1;;align=center;verticalAlign=middle;" connectable="0" vertex="1" parent="LOl-UYX_HxrQlP2uvrO0-32">
          <mxGeometry relative="1" as="geometry" />
        </mxCell>
        <mxCell id="LOl-UYX_HxrQlP2uvrO0-34" value="" style="endArrow=classic;html=1;rounded=0;exitX=0.5;exitY=1;exitDx=0;exitDy=0;entryX=1;entryY=0.75;entryDx=0;entryDy=0;" edge="1" parent="1" source="LOl-UYX_HxrQlP2uvrO0-25" target="LOl-UYX_HxrQlP2uvrO0-20">
          <mxGeometry relative="1" as="geometry">
            <mxPoint x="490" y="429.38" as="sourcePoint" />
            <mxPoint x="590" y="429.38" as="targetPoint" />
          </mxGeometry>
        </mxCell>
        <mxCell id="LOl-UYX_HxrQlP2uvrO0-35" value="Confirmed Transaction" style="edgeLabel;resizable=0;html=1;;align=center;verticalAlign=middle;" connectable="0" vertex="1" parent="LOl-UYX_HxrQlP2uvrO0-34">
          <mxGeometry relative="1" as="geometry" />
        </mxCell>
      </root>
    </mxGraphModel>
  </diagram>
</mxfile>
